<svg xmlns:dc="http://purl.org/dc/elements/1.1/" xmlns:cc="http://creativecommons.org/ns#" xmlns:rdf="http://www.w3.org/1999/02/22-rdf-syntax-ns#" xmlns:svg="http://www.w3.org/2000/svg" xmlns="http://www.w3.org/2000/svg" xmlns:sodipodi="http://sodipodi.sourceforge.net/DTD/sodipodi-0.dtd" xmlns:inkscape="http://www.inkscape.org/namespaces/inkscape" viewBox="0 0 1152.714 1440.5500000000002" version="1.1" x="0px" y="0px"><g transform="translate(-17528.413,6517.7191)"><path style="" d="m 18051.607,-5367.0219 c -109.212,-10.8404 -207.531,-48.9146 -293.707,-113.7382 -130.593,-98.2354 -211.706,-244.0649 -227.509,-409.0331 -3.702,-38.636 -2.09,-95.6271 3.849,-136.1613 28.578,-195.0277 157.009,-363.4284 338.035,-443.236 45.521,-20.0684 99.233,-35.5785 147.913,-42.7115 52.931,-7.7561 116.243,-7.7561 169.174,0 195.028,28.5775 363.429,157.0086 443.236,338.0348 20.069,45.5207 35.579,99.2333 42.712,147.9127 7.756,52.931 7.756,116.2436 0,169.1746 -21.971,149.9424 -103.985,287.0328 -226.113,377.9611 -85.781,63.8663 -184.115,101.4194 -292.848,111.8359 -23.893,2.2889 -81.506,2.2674 -104.742,-0.039 z m 111.918,-458.3459 0,-165.2506 57.409,57.4079 c 31.576,31.5744 57.991,57.6016 58.701,57.8383 1.657,0.5522 86.39,-84.1979 86.39,-86.4072 0,-1.9841 -123.532,-125.8378 -125.511,-125.8378 -0.755,0 -31.463,-30.0938 -68.239,-66.875 -36.776,-36.7813 -67.431,-66.8817 -68.121,-66.8899 -0.69,-0.01 -30.223,28.8605 -65.629,64.1526 -35.406,35.2921 -93.766,93.3696 -129.688,129.0611 -35.921,35.6915 -65.312,65.6184 -65.312,66.5041 0,2.1079 84.861,86.8017 86.444,86.2739 3.014,-1.0044 109.806,-109.1651 109.806,-111.2125 0,-1.2454 0.562,-2.2643 1.25,-2.2643 0.827,0 1.25,55.625 1.25,164.375 l 0,164.375 60.625,0 60.625,0 0,-165.2506 z" fill=" hsla(332, 64%, 76%, .5)"/></g></svg>